<?xml version="1.0" encoding="iso-8859-1"?>
<!-- Generator: Adobe Illustrator 23.0.6, SVG Export Plug-In . SVG Version: 6.00 Build 0)  -->
<svg version="1.1" baseProfile="basic" id="&#x421;&#x43B;&#x43E;&#x439;_1"
	 xmlns="http://www.w3.org/2000/svg" xmlns:xlink="http://www.w3.org/1999/xlink" x="0px" y="0px" viewBox="0 0 100 100"
	 xml:space="preserve">
<circle style="fill:#CEE1F4;" cx="50" cy="50" r="37"/>
<circle style="fill:#78A0CF;" cx="13" cy="29" r="2"/>
<circle style="fill:#F1BC19;" cx="77" cy="13" r="1"/>
<circle style="fill:#F1BC19;" cx="83" cy="15" r="4"/>
<circle style="fill:#78A0CF;" cx="87" cy="24" r="2"/>
<circle style="fill:#FBCD59;" cx="81" cy="76" r="2"/>
<circle style="fill:#FBCD59;" cx="15" cy="63" r="4"/>
<circle style="fill:#78A0CF;" cx="25" cy="87" r="2"/>
<circle style="fill:#FFFFFF;" cx="18.5" cy="53.5" r="2.5"/>
<circle style="fill:#F1BC19;" cx="21" cy="67" r="1"/>
<path style="fill:#68C8D0;" d="M48.701,47.055C39.781,54.141,31.58,56.65,31.695,62.4c0.167,8.336,22.982,15.302,22.982,15.302
	c1.097,0.535,1.41-1.134,0.574-2.024c-3.312-3.525-8.187-7.747-8.969-9.361c-1.334-2.751-3.084-9.337,4.251-15.089
	S57.621,39.97,48.701,47.055z"/>
<path style="fill:#F94B6C;" d="M46.164,19.937c-1.356-0.353-1.544,0.869-0.623,1.925c3.154,3.618,6.964,8.649,7.66,9.694
	c1.167,1.751,5.335,8.67-3.585,15.755s-5.752,9.92,1.584,4.168s19.134-10.765,17.217-17.768
	C66.564,26.943,52.371,21.555,46.164,19.937z"/>
<path style="fill:#1F212B;" d="M46.199,20.052c-1.262-0.61-1.908,0.754-0.987,1.81c3.154,3.618,6.794,8.482,7.49,9.527
	c1.167,1.751,4.918,8.503-4.001,15.589s-13.853,8.509-13.588,14.255c0.288,6.252,14.672,14.005,14.672,14.005l4.893,2.388
	c1.097,0.535,2.22-0.63,0.903-1.947c-3.42-3.42-7.097-7.914-7.88-9.527c-1.334-2.751-3.751-9.003,3.585-14.755
	s15.322-10.114,13.676-16.532C63.17,27.879,52.433,23.065,46.199,20.052z"/>
<path style="fill:#472B29;" d="M55.226,78.256c-0.254,0-0.518-0.059-0.768-0.181l-4.894-2.388
	c-0.615-0.331-14.654-7.971-14.95-14.432c-0.209-4.521,2.587-6.512,7.662-10.125c1.782-1.27,3.802-2.707,6.114-4.544
	c8.166-6.488,5.444-12.596,3.896-14.92C51.61,30.653,48,25.821,44.835,22.19c-0.632-0.724-0.741-1.664-0.267-2.287
	c0.323-0.421,0.979-0.721,1.849-0.302l1.03,0.496c6.469,3.107,16.244,7.804,17.998,14.643c1.451,5.658-3.917,9.636-10.134,14.242
	c-1.225,0.907-2.48,1.838-3.718,2.808c-5.022,3.938-6.149,8.564-3.443,14.144c0.699,1.442,4.251,5.859,7.783,9.392
	c0.929,0.929,0.86,1.819,0.486,2.343C56.147,78.05,55.702,78.256,55.226,78.256z M45.61,20.401c-0.095,0-0.185,0.027-0.246,0.108
	c-0.151,0.198-0.124,0.624,0.225,1.023c3.192,3.663,6.845,8.552,7.529,9.579c1.328,1.993,4.958,9.057-4.106,16.258
	c-2.332,1.853-4.363,3.299-6.155,4.575c-4.945,3.521-7.427,5.287-7.244,9.265c0.271,5.901,14.268,13.512,14.409,13.588l4.876,2.379
	c0.329,0.16,0.597,0.065,0.709-0.09c0.17-0.239,0.021-0.653-0.38-1.055c-3.345-3.345-7.146-7.95-7.977-9.663
	c-2.901-5.982-1.647-11.152,3.727-15.366c1.244-0.976,2.508-1.912,3.739-2.824c5.927-4.392,11.045-8.184,9.761-13.19
	c-1.638-6.388-11.161-10.962-17.462-13.989l-1.033-0.497C45.901,20.463,45.751,20.401,45.61,20.401z"/>
<path style="fill:#472B29;" d="M45.756,19.88c0.121,0,0.256,0.017,0.408,0.057c6.207,1.618,20.4,7.006,22.253,13.775
	c1.917,7.002-9.881,12.016-17.217,17.768c-0.082,0.064-0.161,0.122-0.242,0.184c-6.928,5.677-4.571,11.779-3.258,14.488
	c0.782,1.614,4.46,6.107,7.88,9.527c1.077,1.077,0.521,2.052-0.317,2.078c-0.067,0.025-0.14,0.039-0.22,0.039
	c-0.109,0-0.23-0.027-0.366-0.094c0,0-22.816-6.966-22.982-15.302c-0.098-4.914,5.88-7.469,13.186-12.527
	c1.18-0.859,2.447-1.804,3.82-2.895c8.92-7.086,5.168-13.838,4.001-15.589c-0.696-1.045-4.336-5.91-7.49-9.527
	c-0.707-0.811-0.485-1.796,0.226-1.936C45.531,19.897,45.636,19.88,45.756,19.88 M45.756,18.48c-0.23,0-0.453,0.03-0.666,0.09
	c-0.74,0.173-1.327,0.708-1.578,1.444c-0.312,0.912-0.071,1.947,0.646,2.769c3.136,3.598,6.712,8.381,7.381,9.384
	c1.411,2.117,3.876,7.692-3.707,13.716c-1.517,1.205-2.88,2.209-3.773,2.859c-1.471,1.018-2.895,1.937-4.271,2.826
	c-5.355,3.457-9.584,6.187-9.49,10.861c0.18,8.99,21.077,15.722,23.887,16.587c0.282,0.12,0.571,0.181,0.86,0.181
	c0.159,0,0.317-0.018,0.471-0.055c0.856-0.1,1.588-0.645,1.9-1.431c0.387-0.976,0.071-2.105-0.844-3.021
	c-3.47-3.47-6.941-7.767-7.61-9.148c-2.435-5.022-1.491-9.207,2.886-12.794l0.052-0.038l0.166-0.127
	c1.79-1.404,3.913-2.802,5.966-4.154c6.609-4.353,13.444-8.855,11.738-15.086c-2.536-9.261-23.044-14.706-23.25-14.76
	C46.257,18.515,46,18.48,45.756,18.48L45.756,18.48z"/>
</svg>